<svg xmlns="http://www.w3.org/2000/svg" viewBox="0 0 642 635"><defs><style>.cls-1{fill:#6f4ea0;}.cls-2{fill:#fff;}</style></defs><g id="Layer_1" data-name="Layer 1"><circle class="cls-1" cx="319" cy="318" r="306"/></g><g id="Layer_3" data-name="Layer 3"><path class="cls-2" d="M498.44,486.49,397.59,385.63c22.23-25.95,35.14-59.52,35.14-96.37A148.26,148.26,0,0,0,284.47,141c-81.88,0-147.62,66.38-147.62,148.26s66.37,148.26,147.62,148.26a147.5,147.5,0,0,0,96.37-35.75L481.69,502.63a14.38,14.38,0,0,0,8.7,3.32,11.4,11.4,0,0,0,8.05-19.46ZM285.11,414.71A125.45,125.45,0,1,1,410.56,289.26,125.23,125.23,0,0,1,285.11,414.71Z"/></g></svg>